STARTFONT 2.3
FONT -FontForge-Righteous-Book-R-Normal--11-110-72-72-P-59-ISO10646-1
SIZE 11 72 72  2
FONTBOUNDINGBOX 14 14 -2 -3
COMMENT "Generated by fontforge, http://fontforge.sourceforge.net"
COMMENT "Copyright (c) 2011 by Brian J. Bonislawsky DBA Astigmatic (AOETI) (astigma@astigmatic.com), with ReservedFont Name "Righteous""
STARTPROPERTIES 40
FOUNDRY "FontForge"
FAMILY_NAME "Righteous"
WEIGHT_NAME "Book"
SLANT "R"
SETWIDTH_NAME "Normal"
ADD_STYLE_NAME ""
PIXEL_SIZE 11
POINT_SIZE 110
RESOLUTION_X 72
RESOLUTION_Y 72
SPACING "P"
AVERAGE_WIDTH 59
CHARSET_REGISTRY "ISO10646"
CHARSET_ENCODING "1"
FONTNAME_REGISTRY ""
CHARSET_COLLECTIONS "ISO8859-2 ISO8859-9 ISO8859-4 ISO10646-1"
BITS_PER_PIXEL 2
FONT_NAME "Righteous-Regular"
FACE_NAME "Righteous"
COPYRIGHT "Copyright (c) 2011 by Brian J. Bonislawsky DBA Astigmatic (AOETI) (astigma@astigmatic.com), with ReservedFont Name "Righteous""
FONT_VERSION "1.000"
FONT_ASCENT 9
FONT_DESCENT 2
UNDERLINE_POSITION -1
UNDERLINE_THICKNESS 1
X_HEIGHT 5
CAP_HEIGHT 7
RAW_ASCENT 799
RAW_DESCENT 200
NORM_SPACE 3
RELATIVE_WEIGHT 40
RELATIVE_SETWIDTH 50
SUPERSCRIPT_X 0
SUPERSCRIPT_Y 5
SUPERSCRIPT_SIZE 7
SUBSCRIPT_X 0
SUBSCRIPT_Y 1
SUBSCRIPT_SIZE 7
AVG_LOWERCASE_WIDTH 59
AVG_UPPERCASE_WIDTH 69
ENDPROPERTIES
CHARS 372
STARTCHAR space
ENCODING 32
SWIDTH 279 0
DWIDTH 3 0
BBX 1 1 0 0
BITMAP
00
ENDCHAR
STARTCHAR exclam
ENCODING 33
SWIDTH 274 0
DWIDTH 3 0
BBX 3 9 0 -1
BITMAP
64
74
74
74
74
30
10
74
10
ENDCHAR
STARTCHAR quotedbl
ENCODING 34
SWIDTH 409 0
DWIDTH 5 0
BBX 4 3 0 5
BITMAP
66
77
66
ENDCHAR
STARTCHAR numbersign
ENCODING 35
SWIDTH 561 0
DWIDTH 6 0
BBX 6 6 0 1
BITMAP
0440
1ED0
3FD0
2A80
7B80
2600
ENDCHAR
STARTCHAR dollar
ENCODING 36
SWIDTH 458 0
DWIDTH 5 0
BBX 5 8 0 0
BITMAP
0800
0D00
7F40
7500
2B80
6B40
5D00
0C00
ENDCHAR
STARTCHAR percent
ENCODING 37
SWIDTH 685 0
DWIDTH 8 0
BBX 7 8 0 0
BITMAP
2824
A960
A9D0
7E80
0364
0ADC
0CDC
28B8
ENDCHAR
STARTCHAR ampersand
ENCODING 38
SWIDTH 485 0
DWIDTH 5 0
BBX 5 8 0 0
BITMAP
0500
1F40
7540
7500
3A00
7000
2F80
0A00
ENDCHAR
STARTCHAR quotesingle
ENCODING 39
SWIDTH 238 0
DWIDTH 3 0
BBX 2 3 0 5
BITMAP
60
70
60
ENDCHAR
STARTCHAR parenleft
ENCODING 40
SWIDTH 351 0
DWIDTH 4 0
BBX 4 10 0 -1
BITMAP
19
2C
74
70
B0
B0
70
74
38
1D
ENDCHAR
STARTCHAR parenright
ENCODING 41
SWIDTH 351 0
DWIDTH 4 0
BBX 4 10 0 -1
BITMAP
60
38
2C
1D
0D
0D
1D
2C
38
B4
ENDCHAR
STARTCHAR asterisk
ENCODING 42
SWIDTH 589 0
DWIDTH 6 0
BBX 6 6 0 3
BITMAP
0B00
6BA0
7FE0
1F80
3ED0
1440
ENDCHAR
STARTCHAR plus
ENCODING 43
SWIDTH 485 0
DWIDTH 5 0
BBX 5 6 0 1
BITMAP
0400
0D00
6E80
7F80
0D00
0400
ENDCHAR
STARTCHAR comma
ENCODING 44
SWIDTH 264 0
DWIDTH 3 0
BBX 3 4 0 -2
BITMAP
10
74
30
10
ENDCHAR
STARTCHAR hyphen
ENCODING 45
SWIDTH 528 0
DWIDTH 6 0
BBX 5 2 0 3
BITMAP
6A80
7FC0
ENDCHAR
STARTCHAR period
ENCODING 46
SWIDTH 263 0
DWIDTH 3 0
BBX 3 3 0 -1
BITMAP
10
74
10
ENDCHAR
STARTCHAR slash
ENCODING 47
SWIDTH 490 0
DWIDTH 5 0
BBX 5 8 0 0
BITMAP
0180
0380
0700
0A00
1D00
2C00
3800
7000
ENDCHAR
STARTCHAR zero
ENCODING 48
SWIDTH 642 0
DWIDTH 7 0
BBX 7 8 0 0
BITMAP
0A80
3EF0
7474
B038
B038
7034
39B0
1FD0
ENDCHAR
STARTCHAR one
ENCODING 49
SWIDTH 317 0
DWIDTH 4 0
BBX 3 8 0 0
BITMAP
68
78
28
28
28
28
28
28
ENDCHAR
STARTCHAR two
ENCODING 50
SWIDTH 570 0
DWIDTH 6 0
BBX 6 8 0 0
BITMAP
2A40
3FE0
00A0
1AE0
3F80
7000
BA90
BFE0
ENDCHAR
STARTCHAR three
ENCODING 51
SWIDTH 586 0
DWIDTH 6 0
BBX 6 8 0 0
BITMAP
6A40
7FE0
00B0
1AE0
1FE0
00B0
6AE0
7F80
ENDCHAR
STARTCHAR four
ENCODING 52
SWIDTH 630 0
DWIDTH 7 0
BBX 7 8 0 0
BITMAP
2400
38A0
34A0
74A0
74E0
BFF4
55F4
00A0
ENDCHAR
STARTCHAR five
ENCODING 53
SWIDTH 585 0
DWIDTH 6 0
BBX 6 8 0 0
BITMAP
2AA0
3FE0
7400
7E80
6AE0
00B0
6AF0
7F90
ENDCHAR
STARTCHAR six
ENCODING 54
SWIDTH 615 0
DWIDTH 7 0
BBX 7 9 0 -1
BITMAP
0A00
1D00
3E80
7EF0
B474
B074
79B0
1FD0
0100
ENDCHAR
STARTCHAR seven
ENCODING 55
SWIDTH 516 0
DWIDTH 6 0
BBX 6 8 0 0
BITMAP
AA90
BFD0
02C0
0380
0740
0B00
0E00
1D00
ENDCHAR
STARTCHAR eight
ENCODING 56
SWIDTH 618 0
DWIDTH 7 0
BBX 7 8 0 0
BITMAP
1B80
3EE0
34B0
2EE0
7AF0
B074
74B4
2FD0
ENDCHAR
STARTCHAR nine
ENCODING 57
SWIDTH 616 0
DWIDTH 7 0
BBX 7 8 0 0
BITMAP
1B80
3EE0
B074
B074
79F4
1FF0
01D0
0780
ENDCHAR
STARTCHAR colon
ENCODING 58
SWIDTH 276 0
DWIDTH 3 0
BBX 3 6 0 -1
BITMAP
10
74
10
10
74
10
ENDCHAR
STARTCHAR semicolon
ENCODING 59
SWIDTH 276 0
DWIDTH 3 0
BBX 3 7 0 -2
BITMAP
10
74
10
10
74
34
10
ENDCHAR
STARTCHAR less
ENCODING 60
SWIDTH 478 0
DWIDTH 5 0
BBX 5 7 0 1
BITMAP
0100
0740
1E00
7800
3D00
0F40
0200
ENDCHAR
STARTCHAR equal
ENCODING 61
SWIDTH 539 0
DWIDTH 6 0
BBX 6 4 0 2
BITMAP
6A80
6A80
2A80
7FD0
ENDCHAR
STARTCHAR greater
ENCODING 62
SWIDTH 478 0
DWIDTH 5 0
BBX 5 7 0 1
BITMAP
1000
7800
2E00
0B80
0F40
3D00
2400
ENDCHAR
STARTCHAR question
ENCODING 63
SWIDTH 603 0
DWIDTH 7 0
BBX 7 9 0 -1
BITMAP
6A80
7FF0
0074
02F0
0F90
1D00
0400
1D00
0400
ENDCHAR
STARTCHAR at
ENCODING 64
SWIDTH 629 0
DWIDTH 7 0
BBX 7 7 0 -1
BITMAP
1B90
35B0
6BE4
AEE8
7550
1F40
0100
ENDCHAR
STARTCHAR A
ENCODING 65
SWIDTH 673 0
DWIDTH 7 0
BBX 7 8 0 0
BITMAP
0680
2FF0
7838
7428
7428
7FF8
7978
7428
ENDCHAR
STARTCHAR B
ENCODING 66
SWIDTH 666 0
DWIDTH 7 0
BBX 7 8 0 0
BITMAP
6A90
7FF8
7428
7AB8
7FF4
7428
7AB8
7FE0
ENDCHAR
STARTCHAR C
ENCODING 67
SWIDTH 640 0
DWIDTH 7 0
BBX 7 8 0 0
BITMAP
06A0
2FB8
7800
B000
B000
7400
3E64
0BF4
ENDCHAR
STARTCHAR D
ENCODING 68
SWIDTH 653 0
DWIDTH 7 0
BBX 7 8 0 0
BITMAP
6A40
7FE0
7474
7428
742C
7478
7AF0
7F80
ENDCHAR
STARTCHAR E
ENCODING 69
SWIDTH 578 0
DWIDTH 6 0
BBX 6 8 0 0
BITMAP
6AA0
7FF0
7400
7A40
7F80
7400
7AA0
7FF0
ENDCHAR
STARTCHAR F
ENCODING 70
SWIDTH 562 0
DWIDTH 6 0
BBX 6 8 0 0
BITMAP
6AA0
7FF0
7400
7A40
7F80
7400
7400
7400
ENDCHAR
STARTCHAR G
ENCODING 71
SWIDTH 665 0
DWIDTH 7 0
BBX 7 8 0 0
BITMAP
06A0
2FB8
7810
B000
B028
742C
3E7C
0BF4
ENDCHAR
STARTCHAR H
ENCODING 72
SWIDTH 689 0
DWIDTH 8 0
BBX 7 8 0 0
BITMAP
6418
742C
742C
7ABC
7FFC
742C
742C
742C
ENDCHAR
STARTCHAR I
ENCODING 73
SWIDTH 270 0
DWIDTH 3 0
BBX 3 8 0 0
BITMAP
64
74
74
74
74
74
74
74
ENDCHAR
STARTCHAR J
ENCODING 74
SWIDTH 416 0
DWIDTH 5 0
BBX 4 8 0 0
BITMAP
06
0B
0B
0B
0B
0A
AD
F4
ENDCHAR
STARTCHAR K
ENCODING 75
SWIDTH 625 0
DWIDTH 7 0
BBX 7 8 0 0
BITMAP
6424
74B0
76D0
7B80
7FC0
7DE0
74B0
7438
ENDCHAR
STARTCHAR L
ENCODING 76
SWIDTH 562 0
DWIDTH 6 0
BBX 6 8 0 0
BITMAP
6400
7400
7400
7400
7400
7400
7AA0
7FF0
ENDCHAR
STARTCHAR M
ENCODING 77
SWIDTH 819 0
DWIDTH 9 0
BBX 9 8 0 0
BITMAP
1A6900
3FFF00
75D740
75D740
75D740
75D740
75D740
75D740
ENDCHAR
STARTCHAR N
ENCODING 78
SWIDTH 689 0
DWIDTH 8 0
BBX 7 8 0 0
BITMAP
6418
7C2C
7E2C
7B6C
76AC
75FC
74BC
743C
ENDCHAR
STARTCHAR O
ENCODING 79
SWIDTH 777 0
DWIDTH 9 0
BBX 9 8 0 0
BITMAP
06A000
2FBD00
780F00
B00700
B00740
740B00
3E6D00
0BF400
ENDCHAR
STARTCHAR P
ENCODING 80
SWIDTH 642 0
DWIDTH 7 0
BBX 7 8 0 0
BITMAP
6A90
7FF4
7438
7428
7478
7FF0
7940
7400
ENDCHAR
STARTCHAR Q
ENCODING 81
SWIDTH 777 0
DWIDTH 9 0
BBX 9 10 0 -2
BITMAP
06A000
2FBD00
780F00
B00700
B00740
740B00
3E6D00
0BF400
007800
001800
ENDCHAR
STARTCHAR R
ENCODING 82
SWIDTH 651 0
DWIDTH 7 0
BBX 7 8 0 0
BITMAP
6A90
7FF4
7438
742C
7478
7FF0
79E0
74B0
ENDCHAR
STARTCHAR S
ENCODING 83
SWIDTH 610 0
DWIDTH 7 0
BBX 7 8 0 0
BITMAP
1AA0
7FF0
B000
BA80
2FF0
0074
6AB4
7FD0
ENDCHAR
STARTCHAR T
ENCODING 84
SWIDTH 578 0
DWIDTH 6 0
BBX 7 8 0 0
BITMAP
AAA4
BFF4
0B00
0B00
0B00
0B00
0B00
0B00
ENDCHAR
STARTCHAR U
ENCODING 85
SWIDTH 673 0
DWIDTH 7 0
BBX 7 8 0 0
BITMAP
6028
7428
7428
7428
7428
7438
3EB4
0BD0
ENDCHAR
STARTCHAR V
ENCODING 86
SWIDTH 602 0
DWIDTH 7 0
BBX 7 8 0 0
BITMAP
A064
B0B4
74B0
38E0
2DD0
1FC0
0F80
0B40
ENDCHAR
STARTCHAR W
ENCODING 87
SWIDTH 819 0
DWIDTH 9 0
BBX 9 8 0 0
BITMAP
619240
75D740
75D740
75D740
75D740
75D740
7AEB40
2FBE00
ENDCHAR
STARTCHAR X
ENCODING 88
SWIDTH 608 0
DWIDTH 7 0
BBX 7 8 0 0
BITMAP
A064
78F0
2ED0
0F80
0F80
1FD0
38E0
B474
ENDCHAR
STARTCHAR Y
ENCODING 89
SWIDTH 620 0
DWIDTH 7 0
BBX 7 8 0 0
BITMAP
6024
B034
B034
7474
3FE0
0B80
0740
0740
ENDCHAR
STARTCHAR Z
ENCODING 90
SWIDTH 586 0
DWIDTH 6 0
BBX 7 8 0 0
BITMAP
AAA0
BFE0
02C0
0780
0F00
1D00
3EA0
7FF4
ENDCHAR
STARTCHAR bracketleft
ENCODING 91
SWIDTH 380 0
DWIDTH 4 0
BBX 4 10 0 -1
BITMAP
6A
7A
74
74
74
74
74
74
79
7E
ENDCHAR
STARTCHAR backslash
ENCODING 92
SWIDTH 490 0
DWIDTH 5 0
BBX 5 8 0 0
BITMAP
6000
7400
2800
1D00
0E00
0B00
0340
02C0
ENDCHAR
STARTCHAR bracketright
ENCODING 93
SWIDTH 380 0
DWIDTH 4 0
BBX 4 10 0 -1
BITMAP
69
6E
0E
0E
0E
0E
0E
0E
5E
BE
ENDCHAR
STARTCHAR asciicircum
ENCODING 94
SWIDTH 293 0
DWIDTH 3 0
BBX 3 3 0 5
BITMAP
10
B8
44
ENDCHAR
STARTCHAR underscore
ENCODING 95
SWIDTH 598 0
DWIDTH 7 0
BBX 5 2 1 -3
BITMAP
FF40
AA40
ENDCHAR
STARTCHAR grave
ENCODING 96
SWIDTH 225 0
DWIDTH 2 0
BBX 3 3 0 5
BITMAP
50
B4
10
ENDCHAR
STARTCHAR a
ENCODING 97
SWIDTH 607 0
DWIDTH 7 0
BBX 6 6 0 0
BITMAP
1F90
7AF0
B0B0
A070
79F0
2FA0
ENDCHAR
STARTCHAR b
ENCODING 98
SWIDTH 597 0
DWIDTH 7 0
BBX 7 8 0 0
BITMAP
B000
B000
BB80
BEE0
B074
7074
79F0
1FD0
ENDCHAR
STARTCHAR c
ENCODING 99
SWIDTH 521 0
DWIDTH 6 0
BBX 6 6 0 0
BITMAP
1B80
7AD0
B040
A000
79D0
2F80
ENDCHAR
STARTCHAR d
ENCODING 100
SWIDTH 606 0
DWIDTH 7 0
BBX 6 8 0 0
BITMAP
0070
0070
1BB0
7AF0
B0B0
B070
79F0
2FA0
ENDCHAR
STARTCHAR e
ENCODING 101
SWIDTH 524 0
DWIDTH 6 0
BBX 6 6 0 0
BITMAP
1F80
7AD0
B780
AA00
7ED0
2F80
ENDCHAR
STARTCHAR f
ENCODING 102
SWIDTH 395 0
DWIDTH 4 0
BBX 5 9 0 0
BITMAP
0640
2F80
3800
BE00
BA00
3400
3400
3400
3400
ENDCHAR
STARTCHAR g
ENCODING 103
SWIDTH 607 0
DWIDTH 7 0
BBX 6 8 0 -2
BITMAP
1B90
7AF0
B0B0
A070
79F0
2FF0
01E0
0B80
ENDCHAR
STARTCHAR h
ENCODING 104
SWIDTH 562 0
DWIDTH 6 0
BBX 6 8 0 0
BITMAP
7000
7000
7A40
7ED0
70E0
70A0
70A0
70A0
ENDCHAR
STARTCHAR i
ENCODING 105
SWIDTH 235 0
DWIDTH 3 0
BBX 3 9 0 0
BITMAP
10
B4
60
60
70
70
70
70
70
ENDCHAR
STARTCHAR j
ENCODING 106
SWIDTH 237 0
DWIDTH 3 0
BBX 5 11 -2 -2
BITMAP
0100
0B40
0600
0600
0700
0700
0700
0700
0700
5E00
B800
ENDCHAR
STARTCHAR k
ENCODING 107
SWIDTH 539 0
DWIDTH 6 0
BBX 6 8 0 0
BITMAP
7000
7000
7090
72C0
7B40
7F40
7AC0
70E0
ENDCHAR
STARTCHAR l
ENCODING 108
SWIDTH 235 0
DWIDTH 3 0
BBX 2 8 0 0
BITMAP
70
70
70
70
70
70
70
70
ENDCHAR
STARTCHAR m
ENCODING 109
SWIDTH 762 0
DWIDTH 8 0
BBX 8 6 0 0
BITMAP
6A68
7BEE
72CB
72CB
72CB
72CB
ENDCHAR
STARTCHAR n
ENCODING 110
SWIDTH 562 0
DWIDTH 6 0
BBX 6 6 0 0
BITMAP
5A40
7ED0
70E0
70A0
70A0
70A0
ENDCHAR
STARTCHAR o
ENCODING 111
SWIDTH 579 0
DWIDTH 6 0
BBX 6 6 0 0
BITMAP
1B80
7AE0
B0B0
A070
79E0
2F80
ENDCHAR
STARTCHAR p
ENCODING 112
SWIDTH 608 0
DWIDTH 7 0
BBX 7 9 0 -3
BITMAP
5B90
7EF0
7474
7034
79B0
7FD0
7000
7000
1000
ENDCHAR
STARTCHAR q
ENCODING 113
SWIDTH 607 0
DWIDTH 7 0
BBX 6 9 0 -3
BITMAP
1F90
7AF0
B0B0
A070
79F0
2FF0
0070
0070
0010
ENDCHAR
STARTCHAR r
ENCODING 114
SWIDTH 414 0
DWIDTH 5 0
BBX 5 6 0 0
BITMAP
5A40
7E40
7000
7000
7000
7000
ENDCHAR
STARTCHAR s
ENCODING 115
SWIDTH 523 0
DWIDTH 6 0
BBX 6 6 0 0
BITMAP
2A80
7A80
BA40
2FD0
55D0
BF80
ENDCHAR
STARTCHAR t
ENCODING 116
SWIDTH 437 0
DWIDTH 5 0
BBX 5 8 0 0
BITMAP
3400
3400
BA40
BA40
3400
3400
3D40
0B80
ENDCHAR
STARTCHAR u
ENCODING 117
SWIDTH 562 0
DWIDTH 6 0
BBX 6 6 0 0
BITMAP
6090
B0E0
B0E0
70E0
7AE0
2FA0
ENDCHAR
STARTCHAR v
ENCODING 118
SWIDTH 532 0
DWIDTH 6 0
BBX 6 6 0 0
BITMAP
A0A0
B1D0
36C0
2B80
1F40
0F00
ENDCHAR
STARTCHAR w
ENCODING 119
SWIDTH 756 0
DWIDTH 8 0
BBX 8 6 0 0
BITMAP
6186
B2CA
B2CA
72CA
77DE
2FBC
ENDCHAR
STARTCHAR x
ENCODING 120
SWIDTH 528 0
DWIDTH 6 0
BBX 6 6 0 0
BITMAP
A090
3AC0
1F40
1F00
3B80
B1E0
ENDCHAR
STARTCHAR y
ENCODING 121
SWIDTH 562 0
DWIDTH 6 0
BBX 6 9 0 -3
BITMAP
6090
B0E0
B0E0
70E0
7AE0
2FE0
06D0
0F40
0400
ENDCHAR
STARTCHAR z
ENCODING 122
SWIDTH 481 0
DWIDTH 5 0
BBX 5 6 0 0
BITMAP
AA80
AF40
0A00
1D00
3D40
7FC0
ENDCHAR
STARTCHAR braceleft
ENCODING 123
SWIDTH 466 0
DWIDTH 5 0
BBX 5 10 0 -1
BITMAP
0A80
1E80
1D00
1D00
BC00
B800
1C00
1D00
1E40
0F80
ENDCHAR
STARTCHAR bar
ENCODING 124
SWIDTH 267 0
DWIDTH 3 0
BBX 3 10 0 -1
BITMAP
64
74
74
74
74
74
74
74
74
74
ENDCHAR
STARTCHAR braceright
ENCODING 125
SWIDTH 466 0
DWIDTH 5 0
BBX 5 10 0 -1
BITMAP
6800
6D00
0E00
0E00
0B80
0B80
0E00
0E00
5D00
BC00
ENDCHAR
STARTCHAR asciitilde
ENCODING 126
SWIDTH 451 0
DWIDTH 5 0
BBX 5 2 0 3
BITMAP
7A40
6B40
ENDCHAR
STARTCHAR nonbreakingspace
ENCODING 160
SWIDTH 279 0
DWIDTH 3 0
BBX 1 1 0 0
BITMAP
00
ENDCHAR
STARTCHAR exclamdown
ENCODING 161
SWIDTH 274 0
DWIDTH 3 0
BBX 3 9 0 -2
BITMAP
10
74
20
30
74
74
74
74
64
ENDCHAR
STARTCHAR cent
ENCODING 162
SWIDTH 462 0
DWIDTH 5 0
BBX 5 8 0 0
BITMAP
0900
0900
3F40
6000
6000
3B40
0900
0900
ENDCHAR
STARTCHAR sterling
ENCODING 163
SWIDTH 681 0
DWIDTH 8 0
BBX 7 8 0 0
BITMAP
0640
1F40
2C00
6D00
BF00
2C04
2EBC
2FF4
ENDCHAR
STARTCHAR currency
ENCODING 164
SWIDTH 454 0
DWIDTH 5 0
BBX 5 4 0 2
BITMAP
6640
7740
6240
7B40
ENDCHAR
STARTCHAR yen
ENCODING 165
SWIDTH 653 0
DWIDTH 7 0
BBX 7 8 0 0
BITMAP
6024
7038
7038
7474
2FF0
7FF4
2BA4
0740
ENDCHAR
STARTCHAR brokenbar
ENCODING 166
SWIDTH 269 0
DWIDTH 3 0
BBX 3 10 0 -1
BITMAP
64
74
74
74
60
10
74
74
74
74
ENDCHAR
STARTCHAR section
ENCODING 167
SWIDTH 569 0
DWIDTH 6 0
BBX 6 8 0 0
BITMAP
1A90
7A90
7A80
7AE0
79E0
2FE0
55E0
7FD0
ENDCHAR
STARTCHAR dieresis
ENCODING 168
SWIDTH 300 0
DWIDTH 3 0
BBX 4 1 0 6
BITMAP
DD
ENDCHAR
STARTCHAR copyright
ENCODING 169
SWIDTH 655 0
DWIDTH 7 0
BBX 7 7 0 0
BITMAP
0A90
2664
6818
6808
2AA4
1AA0
0100
ENDCHAR
STARTCHAR ordfeminine
ENCODING 170
SWIDTH 451 0
DWIDTH 5 0
BBX 4 6 0 2
BITMAP
2A
63
63
29
55
15
ENDCHAR
STARTCHAR guillemotleft
ENCODING 171
SWIDTH 704 0
DWIDTH 8 0
BBX 7 6 0 0
BITMAP
0104
0E2C
38B4
75E0
1E78
0508
ENDCHAR
STARTCHAR logicalnot
ENCODING 172
SWIDTH 529 0
DWIDTH 6 0
BBX 5 3 0 2
BITMAP
6A80
7FC0
01C0
ENDCHAR
STARTCHAR uni00AD
ENCODING 173
SWIDTH 418 0
DWIDTH 5 0
BBX 4 2 0 3
BITMAP
6A
7E
ENDCHAR
STARTCHAR registered
ENCODING 174
SWIDTH 439 0
DWIDTH 5 0
BBX 5 5 0 3
BITMAP
1900
6A40
5940
2600
0400
ENDCHAR
STARTCHAR macron
ENCODING 175
SWIDTH 247 0
DWIDTH 3 0
BBX 3 1 0 6
BITMAP
F8
ENDCHAR
STARTCHAR degree
ENCODING 176
SWIDTH 381 0
DWIDTH 4 0
BBX 4 4 0 4
BITMAP
14
7A
AA
29
ENDCHAR
STARTCHAR plusminus
ENCODING 177
SWIDTH 516 0
DWIDTH 6 0
BBX 5 6 0 0
BITMAP
0A00
6F80
7FC0
0E00
5540
7FC0
ENDCHAR
STARTCHAR twosuperior
ENCODING 178
SWIDTH 355 0
DWIDTH 4 0
BBX 4 4 0 4
BITMAP
68
2D
78
7D
ENDCHAR
STARTCHAR threesuperior
ENCODING 179
SWIDTH 354 0
DWIDTH 4 0
BBX 4 4 0 4
BITMAP
68
2D
2D
7D
ENDCHAR
STARTCHAR acute
ENCODING 180
SWIDTH 225 0
DWIDTH 2 0
BBX 3 3 0 5
BITMAP
10
B4
40
ENDCHAR
STARTCHAR mu
ENCODING 181
SWIDTH 571 0
DWIDTH 6 0
BBX 6 9 0 -3
BITMAP
6060
70A0
70A0
70A0
79E0
7FA0
7000
7000
1000
ENDCHAR
STARTCHAR paragraph
ENCODING 182
SWIDTH 808 0
DWIDTH 9 0
BBX 8 8 0 0
BITMAP
06AA
3FFF
75D7
B1D7
79D7
2FD7
06D7
01D7
ENDCHAR
STARTCHAR periodcentered
ENCODING 183
SWIDTH 261 0
DWIDTH 3 0
BBX 3 2 0 3
BITMAP
60
74
ENDCHAR
STARTCHAR cedilla
ENCODING 184
SWIDTH 208 0
DWIDTH 2 0
BBX 3 4 0 -3
BITMAP
10
60
B4
50
ENDCHAR
STARTCHAR onesuperior
ENCODING 185
SWIDTH 231 0
DWIDTH 3 0
BBX 2 4 0 4
BITMAP
60
70
70
70
ENDCHAR
STARTCHAR ordmasculine
ENCODING 186
SWIDTH 432 0
DWIDTH 5 0
BBX 4 6 0 2
BITMAP
29
63
63
29
55
15
ENDCHAR
STARTCHAR guillemotright
ENCODING 187
SWIDTH 703 0
DWIDTH 8 0
BBX 8 6 0 0
BITMAP
1040
74E0
1D78
0E2D
78B4
2090
ENDCHAR
STARTCHAR onequarter
ENCODING 188
SWIDTH 648 0
DWIDTH 7 0
BBX 7 8 0 0
BITMAP
2050
34C0
3680
3700
0A94
1DE4
25F8
6064
ENDCHAR
STARTCHAR onehalf
ENCODING 189
SWIDTH 637 0
DWIDTH 7 0
BBX 7 8 0 0
BITMAP
2050
34C0
3680
3700
09A4
1CB8
24E0
61F8
ENDCHAR
STARTCHAR threequarters
ENCODING 190
SWIDTH 708 0
DWIDTH 8 0
BBX 8 8 0 0
BITMAP
6824
6D60
2DD0
7E80
0364
0A6C
0CBD
285D
ENDCHAR
STARTCHAR questiondown
ENCODING 191
SWIDTH 602 0
DWIDTH 7 0
BBX 7 9 0 -2
BITMAP
0140
02C0
0140
0280
2F40
7900
B000
7FF4
1AA0
ENDCHAR
STARTCHAR Agrave
ENCODING 192
SWIDTH 673 0
DWIDTH 7 0
BBX 7 11 0 0
BITMAP
0400
0E00
0100
0680
2FF0
7838
7428
7428
7FF8
7978
7428
ENDCHAR
STARTCHAR Aacute
ENCODING 193
SWIDTH 673 0
DWIDTH 7 0
BBX 7 11 0 0
BITMAP
0040
02D0
0100
0680
2FF0
7838
7428
7428
7FF8
7978
7428
ENDCHAR
STARTCHAR Acircumflex
ENCODING 194
SWIDTH 673 0
DWIDTH 7 0
BBX 7 11 0 0
BITMAP
0100
07C0
0040
0680
2FF0
7838
7428
7428
7FF8
7978
7428
ENDCHAR
STARTCHAR Atilde
ENCODING 195
SWIDTH 673 0
DWIDTH 7 0
BBX 7 10 0 0
BITMAP
0550
0ED0
0A80
2FF0
7838
7428
7428
7FF8
7978
7428
ENDCHAR
STARTCHAR Adieresis
ENCODING 196
SWIDTH 673 0
DWIDTH 7 0
BBX 7 9 0 0
BITMAP
0DD0
0680
2FF0
7838
7428
7428
7FF8
7978
7428
ENDCHAR
STARTCHAR Aring
ENCODING 197
SWIDTH 673 0
DWIDTH 7 0
BBX 7 10 0 0
BITMAP
0100
0680
0780
2FF0
7838
7428
7428
7FF8
7978
7428
ENDCHAR
STARTCHAR AE
ENCODING 198
SWIDTH 988 0
DWIDTH 11 0
BBX 11 8 0 0
BITMAP
06AAA4
2FFFF4
782800
742E90
742FD0
7FF800
797EA4
742FF8
ENDCHAR
STARTCHAR Ccedilla
ENCODING 199
SWIDTH 640 0
DWIDTH 7 0
BBX 7 11 0 -3
BITMAP
06A0
2FB8
7800
B000
B000
7400
3E64
0BF4
0240
0680
0100
ENDCHAR
STARTCHAR Egrave
ENCODING 200
SWIDTH 578 0
DWIDTH 6 0
BBX 6 11 0 0
BITMAP
0400
0E00
0100
6AA0
7FF0
7400
7A40
7F80
7400
7AA0
7FF0
ENDCHAR
STARTCHAR Eacute
ENCODING 201
SWIDTH 578 0
DWIDTH 6 0
BBX 6 11 0 0
BITMAP
0040
02C0
0100
6AA0
7FF0
7400
7A40
7F80
7400
7AA0
7FF0
ENDCHAR
STARTCHAR Ecircumflex
ENCODING 202
SWIDTH 578 0
DWIDTH 6 0
BBX 6 11 0 0
BITMAP
0100
0B80
0440
6AA0
7FF0
7400
7A40
7F80
7400
7AA0
7FF0
ENDCHAR
STARTCHAR Edieresis
ENCODING 203
SWIDTH 578 0
DWIDTH 6 0
BBX 6 9 0 0
BITMAP
1DC0
6AA0
7FF0
7400
7A40
7F80
7400
7AA0
7FF0
ENDCHAR
STARTCHAR Igrave
ENCODING 204
SWIDTH 270 0
DWIDTH 3 0
BBX 3 11 0 0
BITMAP
40
E0
10
64
74
74
74
74
74
74
74
ENDCHAR
STARTCHAR Iacute
ENCODING 205
SWIDTH 270 0
DWIDTH 3 0
BBX 3 11 0 0
BITMAP
04
2C
10
64
74
74
74
74
74
74
74
ENDCHAR
STARTCHAR Icircumflex
ENCODING 206
SWIDTH 270 0
DWIDTH 3 0
BBX 3 11 0 0
BITMAP
10
B8
44
64
74
74
74
74
74
74
74
ENDCHAR
STARTCHAR Idieresis
ENCODING 207
SWIDTH 270 0
DWIDTH 3 0
BBX 3 9 0 0
BITMAP
DC
64
74
74
74
74
74
74
74
ENDCHAR
STARTCHAR Eth
ENCODING 208
SWIDTH 672 0
DWIDTH 7 0
BBX 7 8 0 0
BITMAP
2A40
3FF0
3478
B92C
BD2C
3438
3AF4
3F90
ENDCHAR
STARTCHAR Ntilde
ENCODING 209
SWIDTH 689 0
DWIDTH 8 0
BBX 7 10 0 0
BITMAP
0550
0ED0
6818
7C2C
7E2C
7B6C
76AC
75FC
74BC
743C
ENDCHAR
STARTCHAR Ograve
ENCODING 210
SWIDTH 777 0
DWIDTH 9 0
BBX 9 11 0 0
BITMAP
010000
074000
004000
06A000
2FBD00
780F00
B00700
B00740
740B00
3E6D00
0BF400
ENDCHAR
STARTCHAR Oacute
ENCODING 211
SWIDTH 777 0
DWIDTH 9 0
BBX 9 11 0 0
BITMAP
001000
00F000
004000
06A000
2FBD00
780F00
B00700
B00740
740B00
3E6D00
0BF400
ENDCHAR
STARTCHAR Ocircumflex
ENCODING 212
SWIDTH 777 0
DWIDTH 9 0
BBX 9 11 0 0
BITMAP
004000
03D000
010000
06A000
2FBD00
780F00
B00700
B00740
740B00
3E6D00
0BF400
ENDCHAR
STARTCHAR Otilde
ENCODING 213
SWIDTH 777 0
DWIDTH 9 0
BBX 9 10 0 0
BITMAP
026000
07F000
07E000
2FBD00
780F00
B00700
B00740
740B00
3E6D00
0BF400
ENDCHAR
STARTCHAR Odieresis
ENCODING 214
SWIDTH 777 0
DWIDTH 9 0
BBX 9 9 0 0
BITMAP
077000
06A000
2FBD00
780F00
B00700
B00740
740B00
3E6D00
0BF400
ENDCHAR
STARTCHAR multiply
ENCODING 215
SWIDTH 479 0
DWIDTH 5 0
BBX 4 4 1 2
BITMAP
99
FD
BC
DD
ENDCHAR
STARTCHAR Oslash
ENCODING 216
SWIDTH 777 0
DWIDTH 9 0
BBX 9 8 0 0
BITMAP
06A900
2FBD00
787F00
B0D740
B28740
7B0B00
3E6D00
3FF400
ENDCHAR
STARTCHAR Ugrave
ENCODING 217
SWIDTH 673 0
DWIDTH 7 0
BBX 7 11 0 0
BITMAP
0400
0B00
0100
6028
7428
7428
7428
7428
7438
3EB4
0BD0
ENDCHAR
STARTCHAR Uacute
ENCODING 218
SWIDTH 673 0
DWIDTH 7 0
BBX 7 11 0 0
BITMAP
0040
01D0
0140
6028
7428
7428
7428
7428
7438
3EB4
0BD0
ENDCHAR
STARTCHAR Ucircumflex
ENCODING 219
SWIDTH 673 0
DWIDTH 7 0
BBX 7 11 0 0
BITMAP
0100
07C0
0040
6028
7428
7428
7428
7428
7438
3EB4
0BD0
ENDCHAR
STARTCHAR Udieresis
ENCODING 220
SWIDTH 673 0
DWIDTH 7 0
BBX 7 9 0 0
BITMAP
0DD0
6428
7428
7428
7428
7428
7438
3EB4
0BD0
ENDCHAR
STARTCHAR Yacute
ENCODING 221
SWIDTH 620 0
DWIDTH 7 0
BBX 7 11 0 0
BITMAP
0040
02C0
0100
6024
B034
B034
7474
3FE0
0B80
0740
0740
ENDCHAR
STARTCHAR Thorn
ENCODING 222
SWIDTH 637 0
DWIDTH 7 0
BBX 7 9 0 -1
BITMAP
7400
7F90
7AB4
7438
7428
75B4
7FE0
7500
1000
ENDCHAR
STARTCHAR germandbls
ENCODING 223
SWIDTH 813 0
DWIDTH 9 0
BBX 9 9 0 0
BITMAP
069000
2FF800
381C00
B4BC00
B6E000
36E900
35BF80
355680
35FF40
ENDCHAR
STARTCHAR agrave
ENCODING 224
SWIDTH 607 0
DWIDTH 7 0
BBX 6 9 0 0
BITMAP
0400
1D00
0500
1F90
7AF0
B0B0
A070
79F0
2FA0
ENDCHAR
STARTCHAR aacute
ENCODING 225
SWIDTH 607 0
DWIDTH 7 0
BBX 6 9 0 0
BITMAP
0040
0380
0100
1F90
7AF0
B0B0
A070
79F0
2FA0
ENDCHAR
STARTCHAR acircumflex
ENCODING 226
SWIDTH 607 0
DWIDTH 7 0
BBX 6 9 0 0
BITMAP
0100
0F40
0400
1F90
7AF0
B0B0
A070
79F0
2FA0
ENDCHAR
STARTCHAR atilde
ENCODING 227
SWIDTH 607 0
DWIDTH 7 0
BBX 6 9 0 0
BITMAP
0980
2BC0
0000
1F90
7AF0
B0B0
A070
79F0
2FA0
ENDCHAR
STARTCHAR adieresis
ENCODING 228
SWIDTH 607 0
DWIDTH 7 0
BBX 6 7 0 0
BITMAP
1980
1F90
7AF0
B0B0
A070
79F0
2FA0
ENDCHAR
STARTCHAR aring
ENCODING 229
SWIDTH 607 0
DWIDTH 7 0
BBX 6 9 0 0
BITMAP
0600
0A00
0100
1F90
7AF0
B0B0
A070
79F0
2FA0
ENDCHAR
STARTCHAR ae
ENCODING 230
SWIDTH 976 0
DWIDTH 11 0
BBX 11 6 0 0
BITMAP
1F97E0
7AFEB4
B0BDE0
A07B80
79FFB4
2FABE0
ENDCHAR
STARTCHAR ccedilla
ENCODING 231
SWIDTH 521 0
DWIDTH 6 0
BBX 6 9 0 -3
BITMAP
1B80
7AD0
B040
A000
79D0
2F80
0600
0B00
0500
ENDCHAR
STARTCHAR egrave
ENCODING 232
SWIDTH 524 0
DWIDTH 6 0
BBX 6 9 0 0
BITMAP
0400
1D00
0400
1F80
7AD0
B780
AA00
7ED0
2F80
ENDCHAR
STARTCHAR eacute
ENCODING 233
SWIDTH 524 0
DWIDTH 6 0
BBX 6 9 0 0
BITMAP
0040
0780
0100
1F80
7AD0
B780
AA00
7ED0
2F80
ENDCHAR
STARTCHAR ecircumflex
ENCODING 234
SWIDTH 524 0
DWIDTH 6 0
BBX 6 9 0 0
BITMAP
0500
1F00
0100
1F80
7AD0
B780
AA00
7ED0
2F80
ENDCHAR
STARTCHAR edieresis
ENCODING 235
SWIDTH 524 0
DWIDTH 6 0
BBX 6 8 0 0
BITMAP
2A40
0000
1F80
7AD0
B780
AA00
7ED0
2F80
ENDCHAR
STARTCHAR igrave
ENCODING 236
SWIDTH 235 0
DWIDTH 3 0
BBX 3 9 -1 0
BITMAP
10
78
04
18
1C
1C
1C
1C
1C
ENDCHAR
STARTCHAR iacute
ENCODING 237
SWIDTH 235 0
DWIDTH 3 0
BBX 3 9 0 0
BITMAP
04
38
10
60
70
70
70
70
70
ENDCHAR
STARTCHAR icircumflex
ENCODING 238
SWIDTH 235 0
DWIDTH 3 0
BBX 3 9 0 0
BITMAP
10
B4
40
60
70
70
70
70
70
ENDCHAR
STARTCHAR idieresis
ENCODING 239
SWIDTH 235 0
DWIDTH 3 0
BBX 4 7 -1 0
BITMAP
77
18
1C
1C
1C
1C
1C
ENDCHAR
STARTCHAR eth
ENCODING 240
SWIDTH 581 0
DWIDTH 6 0
BBX 6 9 0 0
BITMAP
0500
1FA0
1AE0
1BD0
7AF0
B0B0
A070
79E0
2F80
ENDCHAR
STARTCHAR ntilde
ENCODING 241
SWIDTH 562 0
DWIDTH 6 0
BBX 6 8 0 0
BITMAP
1940
2B80
6F40
7ED0
70E0
70A0
70A0
70A0
ENDCHAR
STARTCHAR ograve
ENCODING 242
SWIDTH 579 0
DWIDTH 6 0
BBX 6 9 0 0
BITMAP
0400
1D00
0500
1B80
7AE0
B0B0
A070
79E0
2F80
ENDCHAR
STARTCHAR oacute
ENCODING 243
SWIDTH 579 0
DWIDTH 6 0
BBX 6 9 0 0
BITMAP
0040
0780
0100
1B80
7AE0
B0B0
A070
79E0
2F80
ENDCHAR
STARTCHAR ocircumflex
ENCODING 244
SWIDTH 579 0
DWIDTH 6 0
BBX 6 9 0 0
BITMAP
0100
0F40
0400
1B80
7AE0
B0B0
A070
79E0
2F80
ENDCHAR
STARTCHAR otilde
ENCODING 245
SWIDTH 579 0
DWIDTH 6 0
BBX 6 9 0 0
BITMAP
0940
2B80
0000
1B80
7AE0
B0B0
A070
79E0
2F80
ENDCHAR
STARTCHAR odieresis
ENCODING 246
SWIDTH 579 0
DWIDTH 6 0
BBX 6 7 0 0
BITMAP
1980
1F80
7AE0
B0B0
A070
79E0
2F80
ENDCHAR
STARTCHAR divide
ENCODING 247
SWIDTH 494 0
DWIDTH 5 0
BBX 5 6 0 1
BITMAP
0400
0D00
6A80
7F80
0900
0900
ENDCHAR
STARTCHAR oslash
ENCODING 248
SWIDTH 579 0
DWIDTH 6 0
BBX 6 6 0 0
BITMAP
1BA0
7AE0
B3B0
AA70
7DE0
7F80
ENDCHAR
STARTCHAR ugrave
ENCODING 249
SWIDTH 562 0
DWIDTH 6 0
BBX 6 9 0 0
BITMAP
0400
2D00
0400
6090
B0E0
B0E0
70E0
7AE0
2FA0
ENDCHAR
STARTCHAR uacute
ENCODING 250
SWIDTH 562 0
DWIDTH 6 0
BBX 6 9 0 0
BITMAP
0140
0780
0100
6090
B0E0
B0E0
70E0
7AE0
2FA0
ENDCHAR
STARTCHAR ucircumflex
ENCODING 251
SWIDTH 562 0
DWIDTH 6 0
BBX 6 9 0 0
BITMAP
0500
1F40
0400
6090
B0E0
B0E0
70E0
7AE0
2FA0
ENDCHAR
STARTCHAR udieresis
ENCODING 252
SWIDTH 562 0
DWIDTH 6 0
BBX 6 7 0 0
BITMAP
2A80
6090
B0E0
B0E0
70E0
7AE0
2FA0
ENDCHAR
STARTCHAR yacute
ENCODING 253
SWIDTH 562 0
DWIDTH 6 0
BBX 6 12 0 -3
BITMAP
0140
0780
0100
6090
B0E0
B0E0
70E0
7AE0
2FE0
06D0
0F40
0400
ENDCHAR
STARTCHAR thorn
ENCODING 254
SWIDTH 608 0
DWIDTH 7 0
BBX 7 11 0 -3
BITMAP
7000
7000
7B90
7EF0
7474
7034
79B0
7FD0
7000
7000
1000
ENDCHAR
STARTCHAR ydieresis
ENCODING 255
SWIDTH 562 0
DWIDTH 6 0
BBX 6 10 0 -3
BITMAP
2A80
6090
B0E0
B0E0
70E0
7AE0
2FE0
06D0
0F40
0400
ENDCHAR
STARTCHAR Amacron
ENCODING 256
SWIDTH 673 0
DWIDTH 7 0
BBX 7 9 0 0
BITMAP
0BC0
0680
2FF0
7838
7428
7428
7FF8
7978
7428
ENDCHAR
STARTCHAR amacron
ENCODING 257
SWIDTH 607 0
DWIDTH 7 0
BBX 6 8 0 0
BITMAP
1F40
0000
1F90
7AF0
B0B0
A070
79F0
2FA0
ENDCHAR
STARTCHAR Abreve
ENCODING 258
SWIDTH 673 0
DWIDTH 7 0
BBX 7 10 0 0
BITMAP
0540
0780
0680
2FF0
7838
7428
7428
7FF8
7978
7428
ENDCHAR
STARTCHAR abreve
ENCODING 259
SWIDTH 607 0
DWIDTH 7 0
BBX 6 8 0 0
BITMAP
0500
0F00
1F90
7AF0
B0B0
A070
79F0
2FA0
ENDCHAR
STARTCHAR Aogonek
ENCODING 260
SWIDTH 673 0
DWIDTH 7 0
BBX 7 10 0 -2
BITMAP
0680
2FF0
7838
7428
7428
7FF8
7978
7428
0034
0028
ENDCHAR
STARTCHAR aogonek
ENCODING 261
SWIDTH 607 0
DWIDTH 7 0
BBX 7 8 0 -2
BITMAP
1F90
7AF0
B0B0
A070
79F0
2FA0
0020
0038
ENDCHAR
STARTCHAR Cacute
ENCODING 262
SWIDTH 640 0
DWIDTH 7 0
BBX 7 11 0 0
BITMAP
0050
01E0
0040
06A0
2FB8
7800
B000
B000
7400
3E64
0BF4
ENDCHAR
STARTCHAR cacute
ENCODING 263
SWIDTH 521 0
DWIDTH 6 0
BBX 6 9 0 0
BITMAP
0140
0780
0100
1B80
7AD0
B040
A000
79D0
2F80
ENDCHAR
STARTCHAR Ccircumflex
ENCODING 264
SWIDTH 640 0
DWIDTH 7 0
BBX 7 11 0 0
BITMAP
0140
07D0
0100
06A0
2FB8
7800
B000
B000
7400
3E64
0BF4
ENDCHAR
STARTCHAR ccircumflex
ENCODING 265
SWIDTH 521 0
DWIDTH 6 0
BBX 6 9 0 0
BITMAP
0100
0F40
0400
1B80
7AD0
B040
A000
79D0
2F80
ENDCHAR
STARTCHAR Cdotaccent
ENCODING 266
SWIDTH 640 0
DWIDTH 7 0
BBX 7 9 0 0
BITMAP
0180
06A0
2FB8
7800
B000
B000
7400
3E64
0BF4
ENDCHAR
STARTCHAR cdotaccent
ENCODING 267
SWIDTH 521 0
DWIDTH 6 0
BBX 6 8 0 0
BITMAP
0600
0000
1B80
7AD0
B040
A000
79D0
2F80
ENDCHAR
STARTCHAR Ccaron
ENCODING 268
SWIDTH 640 0
DWIDTH 7 0
BBX 7 11 0 0
BITMAP
0150
02D0
0000
06A0
2FB8
7800
B000
B000
7400
3E64
0BF4
ENDCHAR
STARTCHAR ccaron
ENCODING 269
SWIDTH 521 0
DWIDTH 6 0
BBX 6 9 0 0
BITMAP
0540
0B40
0000
1B80
7AD0
B040
A000
79D0
2F80
ENDCHAR
STARTCHAR Dcaron
ENCODING 270
SWIDTH 653 0
DWIDTH 7 0
BBX 7 10 0 0
BITMAP
0540
0780
6A40
7FE0
7474
7428
742C
7478
7AF0
7F80
ENDCHAR
STARTCHAR dcaron
ENCODING 271
SWIDTH 740 0
DWIDTH 8 0
BBX 8 8 0 0
BITMAP
0076
0077
1BB1
7AF0
B0B0
B070
79F0
2FA0
ENDCHAR
STARTCHAR Dcroat
ENCODING 272
SWIDTH 672 0
DWIDTH 7 0
BBX 7 8 0 0
BITMAP
2A40
3FF0
3478
B92C
BD2C
3438
3AF4
3F90
ENDCHAR
STARTCHAR dcroat
ENCODING 273
SWIDTH 606 0
DWIDTH 7 0
BBX 7 8 0 0
BITMAP
00B8
00B8
1BB0
7AF0
B0B0
B070
79F0
2FA0
ENDCHAR
STARTCHAR Emacron
ENCODING 274
SWIDTH 578 0
DWIDTH 6 0
BBX 6 9 0 0
BITMAP
0FC0
6AA0
7FF0
7400
7A40
7F80
7400
7AA0
7FF0
ENDCHAR
STARTCHAR emacron
ENCODING 275
SWIDTH 524 0
DWIDTH 6 0
BBX 6 8 0 0
BITMAP
1F40
0000
1F80
7AD0
B780
AA00
7ED0
2F80
ENDCHAR
STARTCHAR Ebreve
ENCODING 276
SWIDTH 578 0
DWIDTH 6 0
BBX 6 10 0 0
BITMAP
0540
0B40
6AA0
7FF0
7400
7A40
7F80
7400
7AA0
7FF0
ENDCHAR
STARTCHAR ebreve
ENCODING 277
SWIDTH 524 0
DWIDTH 6 0
BBX 6 8 0 0
BITMAP
0500
0F00
1F80
7AD0
B780
AA00
7ED0
2F80
ENDCHAR
STARTCHAR Edotaccent
ENCODING 278
SWIDTH 578 0
DWIDTH 6 0
BBX 6 10 0 0
BITMAP
0100
0700
6AA0
7FF0
7400
7A40
7F80
7400
7AA0
7FF0
ENDCHAR
STARTCHAR edotaccent
ENCODING 279
SWIDTH 524 0
DWIDTH 6 0
BBX 6 8 0 0
BITMAP
0600
0000
1F80
7AD0
B780
AA00
7ED0
2F80
ENDCHAR
STARTCHAR Eogonek
ENCODING 280
SWIDTH 578 0
DWIDTH 6 0
BBX 6 10 0 -2
BITMAP
6AA0
7FF0
7400
7A40
7F80
7400
7AA0
7FF0
0080
00E0
ENDCHAR
STARTCHAR eogonek
ENCODING 281
SWIDTH 524 0
DWIDTH 6 0
BBX 6 8 0 -2
BITMAP
1F80
7AD0
B780
AA00
7ED0
2F80
0340
0280
ENDCHAR
STARTCHAR Ecaron
ENCODING 282
SWIDTH 578 0
DWIDTH 6 0
BBX 6 10 0 0
BITMAP
0540
0B40
6BA0
7FF0
7400
7A40
7F80
7400
7AA0
7FF0
ENDCHAR
STARTCHAR ecaron
ENCODING 283
SWIDTH 524 0
DWIDTH 6 0
BBX 6 9 0 0
BITMAP
0540
0B00
0000
1F80
7AD0
B780
AA00
7ED0
2F80
ENDCHAR
STARTCHAR Gcircumflex
ENCODING 284
SWIDTH 665 0
DWIDTH 7 0
BBX 7 11 0 0
BITMAP
0140
03D0
0100
06A0
2FB8
7810
B000
B028
742C
3E7C
0BF4
ENDCHAR
STARTCHAR gcircumflex
ENCODING 285
SWIDTH 607 0
DWIDTH 7 0
BBX 6 11 0 -2
BITMAP
0100
0F40
0400
1B90
7AF0
B0B0
A070
79F0
2FF0
01E0
0B80
ENDCHAR
STARTCHAR Gbreve
ENCODING 286
SWIDTH 665 0
DWIDTH 7 0
BBX 7 10 0 0
BITMAP
0140
03D0
06A0
2FB8
7810
B000
B028
742C
3E7C
0BF4
ENDCHAR
STARTCHAR gbreve
ENCODING 287
SWIDTH 607 0
DWIDTH 7 0
BBX 6 11 0 -2
BITMAP
0500
0F40
0000
1B90
7AF0
B0B0
A070
79F0
2FF0
01E0
0B80
ENDCHAR
STARTCHAR Gdotaccent
ENCODING 288
SWIDTH 665 0
DWIDTH 7 0
BBX 7 9 0 0
BITMAP
0280
06A0
2FB8
7810
B000
B028
742C
3E7C
0BF4
ENDCHAR
STARTCHAR gdotaccent
ENCODING 289
SWIDTH 607 0
DWIDTH 7 0
BBX 6 10 0 -2
BITMAP
0600
0000
1B90
7AF0
B0B0
A070
79F0
2FF0
01E0
0B80
ENDCHAR
STARTCHAR Gcommaaccent
ENCODING 290
SWIDTH 665 0
DWIDTH 7 0
BBX 7 11 0 -3
BITMAP
06A0
2FB8
7810
B000
B028
742C
3E7C
0BF4
0140
0180
0040
ENDCHAR
STARTCHAR gcommaaccent
ENCODING 291
SWIDTH 607 0
DWIDTH 7 0
BBX 6 11 0 -2
BITMAP
0500
0A00
0000
1B90
7AF0
B0B0
A070
79F0
2FF0
01E0
0B80
ENDCHAR
STARTCHAR Hcircumflex
ENCODING 292
SWIDTH 689 0
DWIDTH 8 0
BBX 7 10 0 0
BITMAP
0100
07C0
6458
742C
742C
7ABC
7FFC
742C
742C
742C
ENDCHAR
STARTCHAR hcircumflex
ENCODING 293
SWIDTH 562 0
DWIDTH 6 0
BBX 6 9 0 0
BITMAP
0100
77C0
7040
7A40
7ED0
70E0
70A0
70A0
70A0
ENDCHAR
STARTCHAR Hbar
ENCODING 294
SWIDTH 689 0
DWIDTH 8 0
BBX 8 8 0 0
BITMAP
6418
BABD
BABD
7ABC
7FFC
742C
742C
742C
ENDCHAR
STARTCHAR hbar
ENCODING 295
SWIDTH 562 0
DWIDTH 6 0
BBX 6 8 0 0
BITMAP
B400
B400
7A40
7ED0
70E0
70A0
70A0
70A0
ENDCHAR
STARTCHAR Itilde
ENCODING 296
SWIDTH 270 0
DWIDTH 3 0
BBX 4 10 -1 0
BITMAP
15
7B
19
1D
1D
1D
1D
1D
1D
1D
ENDCHAR
STARTCHAR itilde
ENCODING 297
SWIDTH 235 0
DWIDTH 3 0
BBX 4 8 -1 0
BITMAP
26
7F
18
1C
1C
1C
1C
1C
ENDCHAR
STARTCHAR Imacron
ENCODING 298
SWIDTH 270 0
DWIDTH 3 0
BBX 3 9 0 0
BITMAP
FC
64
74
74
74
74
74
74
74
ENDCHAR
STARTCHAR imacron
ENCODING 299
SWIDTH 235 0
DWIDTH 3 0
BBX 3 7 0 0
BITMAP
F8
70
70
70
70
70
70
ENDCHAR
STARTCHAR Ibreve
ENCODING 300
SWIDTH 270 0
DWIDTH 3 0
BBX 3 10 0 0
BITMAP
54
78
64
74
74
74
74
74
74
74
ENDCHAR
STARTCHAR ibreve
ENCODING 301
SWIDTH 235 0
DWIDTH 3 0
BBX 3 8 0 0
BITMAP
54
B4
60
70
70
70
70
70
ENDCHAR
STARTCHAR Iogonek
ENCODING 302
SWIDTH 270 0
DWIDTH 3 0
BBX 3 10 0 -2
BITMAP
64
74
74
74
74
74
74
74
60
74
ENDCHAR
STARTCHAR iogonek
ENCODING 303
SWIDTH 235 0
DWIDTH 3 0
BBX 3 11 0 -2
BITMAP
10
B4
60
60
70
70
70
70
70
90
74
ENDCHAR
STARTCHAR Idotaccent
ENCODING 304
SWIDTH 270 0
DWIDTH 3 0
BBX 3 10 0 0
BITMAP
10
30
64
74
74
74
74
74
74
74
ENDCHAR
STARTCHAR dotlessi
ENCODING 305
SWIDTH 235 0
DWIDTH 3 0
BBX 2 6 0 0
BITMAP
60
70
70
70
70
70
ENDCHAR
STARTCHAR IJ
ENCODING 306
SWIDTH 687 0
DWIDTH 8 0
BBX 7 8 0 0
BITMAP
6418
742C
742C
742C
742C
7428
76B4
77D0
ENDCHAR
STARTCHAR ij
ENCODING 307
SWIDTH 474 0
DWIDTH 5 0
BBX 5 12 0 -3
BITMAP
1000
B780
6140
6240
7380
7380
7380
7380
7380
1B40
3E00
1000
ENDCHAR
STARTCHAR Jcircumflex
ENCODING 308
SWIDTH 416 0
DWIDTH 5 0
BBX 5 11 0 0
BITMAP
0100
0F40
0400
0600
0B00
0B00
0B00
0B00
0A00
AD00
F400
ENDCHAR
STARTCHAR jcircumflex
ENCODING 309
SWIDTH 237 0
DWIDTH 3 0
BBX 5 11 -2 -2
BITMAP
0100
0B40
0400
0600
0700
0700
0700
0700
0700
5E00
B800
ENDCHAR
STARTCHAR Kcommaaccent
ENCODING 310
SWIDTH 625 0
DWIDTH 7 0
BBX 7 11 0 -3
BITMAP
6424
74B0
76D0
7B80
7FC0
7DE0
74B0
7438
0100
0700
0100
ENDCHAR
STARTCHAR kcommaaccent
ENCODING 311
SWIDTH 539 0
DWIDTH 6 0
BBX 6 11 0 -3
BITMAP
7000
7000
7090
72C0
7B40
7F40
7AC0
70E0
0500
0A00
0500
ENDCHAR
STARTCHAR kgreenlandic
ENCODING 312
SWIDTH 539 0
DWIDTH 6 0
BBX 6 6 0 0
BITMAP
6090
72C0
7B40
7F40
7AC0
70E0
ENDCHAR
STARTCHAR Lacute
ENCODING 313
SWIDTH 562 0
DWIDTH 6 0
BBX 6 10 0 0
BITMAP
0100
0740
6500
7400
7400
7400
7400
7400
7AA0
7FF0
ENDCHAR
STARTCHAR lacute
ENCODING 314
SWIDTH 235 0
DWIDTH 3 0
BBX 4 11 0 0
BITMAP
04
2D
10
70
70
70
70
70
70
70
70
ENDCHAR
STARTCHAR Lcommaaccent
ENCODING 315
SWIDTH 562 0
DWIDTH 6 0
BBX 6 11 0 -3
BITMAP
6400
7400
7400
7400
7400
7400
7AA0
7FF0
0500
0600
0100
ENDCHAR
STARTCHAR lcommaaccent
ENCODING 316
SWIDTH 235 0
DWIDTH 3 0
BBX 2 11 0 -3
BITMAP
70
70
70
70
70
70
70
70
10
70
10
ENDCHAR
STARTCHAR Lcaron
ENCODING 317
SWIDTH 562 0
DWIDTH 6 0
BBX 6 8 0 0
BITMAP
6600
7640
7500
7400
7400
7400
7AA0
7FF0
ENDCHAR
STARTCHAR lcaron
ENCODING 318
SWIDTH 369 0
DWIDTH 4 0
BBX 4 8 0 0
BITMAP
76
77
71
70
70
70
70
70
ENDCHAR
STARTCHAR Ldot
ENCODING 319
SWIDTH 745 0
DWIDTH 8 0
BBX 8 8 0 0
BITMAP
6400
7400
7400
7409
740E
7400
7AA0
7FF0
ENDCHAR
STARTCHAR ldotaccent
ENCODING 320
SWIDTH 463 0
DWIDTH 5 0
BBX 5 8 0 0
BITMAP
7000
7000
7000
7240
7740
7000
7000
7000
ENDCHAR
STARTCHAR Lslash
ENCODING 321
SWIDTH 585 0
DWIDTH 6 0
BBX 7 8 0 0
BITMAP
2400
3800
3800
3D00
F800
7800
3AA4
3FF4
ENDCHAR
STARTCHAR lslash
ENCODING 322
SWIDTH 319 0
DWIDTH 4 0
BBX 4 8 0 0
BITMAP
34
34
38
3D
B8
74
34
34
ENDCHAR
STARTCHAR Nacute
ENCODING 323
SWIDTH 689 0
DWIDTH 8 0
BBX 7 10 0 0
BITMAP
0040
01D0
6518
7C2C
7E2C
7B6C
76AC
75FC
74BC
743C
ENDCHAR
STARTCHAR nacute
ENCODING 324
SWIDTH 562 0
DWIDTH 6 0
BBX 6 9 0 0
BITMAP
0040
03C0
0100
5A40
7ED0
70E0
70A0
70A0
70A0
ENDCHAR
STARTCHAR Ncommaaccent
ENCODING 325
SWIDTH 689 0
DWIDTH 8 0
BBX 7 11 0 -3
BITMAP
6418
7C2C
7E2C
7B6C
76AC
75FC
74BC
743C
0100
0240
0100
ENDCHAR
STARTCHAR ncommaaccent
ENCODING 326
SWIDTH 562 0
DWIDTH 6 0
BBX 6 9 0 -3
BITMAP
5A40
7ED0
70E0
70A0
70A0
70A0
0500
0600
0100
ENDCHAR
STARTCHAR Ncaron
ENCODING 327
SWIDTH 689 0
DWIDTH 8 0
BBX 7 10 0 0
BITMAP
0540
0780
6418
7C2C
7E2C
7B6C
76AC
75FC
74BC
743C
ENDCHAR
STARTCHAR ncaron
ENCODING 328
SWIDTH 562 0
DWIDTH 6 0
BBX 6 9 0 0
BITMAP
0540
0B00
0000
5A40
7ED0
70E0
70A0
70A0
70A0
ENDCHAR
STARTCHAR napostrophe
ENCODING 329
SWIDTH 694 0
DWIDTH 8 0
BBX 8 8 0 0
BITMAP
9000
9000
4AA0
0FB8
0E1C
0E1D
0E1D
0E1D
ENDCHAR
STARTCHAR Eng
ENCODING 330
SWIDTH 689 0
DWIDTH 8 0
BBX 7 10 0 -2
BITMAP
6418
7C2C
7E2C
7B6C
76AC
75FC
74BC
7438
01B4
03E0
ENDCHAR
STARTCHAR eng
ENCODING 331
SWIDTH 562 0
DWIDTH 6 0
BBX 6 9 0 -3
BITMAP
5A40
7ED0
70E0
70A0
70A0
70E0
06D0
0F80
0400
ENDCHAR
STARTCHAR Omacron
ENCODING 332
SWIDTH 777 0
DWIDTH 9 0
BBX 9 9 0 0
BITMAP
03E000
06E000
2FBD00
780F00
B00700
B00740
740B00
3E6D00
0BF400
ENDCHAR
STARTCHAR omacron
ENCODING 333
SWIDTH 579 0
DWIDTH 6 0
BBX 6 8 0 0
BITMAP
1F80
0000
1B80
7AE0
B0B0
A070
79E0
2F80
ENDCHAR
STARTCHAR Obreve
ENCODING 334
SWIDTH 777 0
DWIDTH 9 0
BBX 9 10 0 0
BITMAP
015000
02D000
06A000
2FBD00
780F00
B00700
B00740
740B00
3E6D00
0BF400
ENDCHAR
STARTCHAR obreve
ENCODING 335
SWIDTH 579 0
DWIDTH 6 0
BBX 6 9 0 0
BITMAP
0540
0B40
0000
1B80
7AE0
B0B0
A070
79E0
2F80
ENDCHAR
STARTCHAR Ohungarumlaut
ENCODING 336
SWIDTH 777 0
DWIDTH 9 0
BBX 9 11 0 0
BITMAP
02A400
037400
001000
06A000
2FBD00
780F00
B00700
B00740
740B00
3E6D00
0BF400
ENDCHAR
STARTCHAR ohungarumlaut
ENCODING 337
SWIDTH 579 0
DWIDTH 6 0
BBX 6 8 0 0
BITMAP
0A90
1DD0
1F80
7AE0
B0B0
A070
79E0
2F80
ENDCHAR
STARTCHAR OE
ENCODING 338
SWIDTH 1125 0
DWIDTH 12 0
BBX 12 8 0 0
BITMAP
06A6AA
2FBFFF
780F40
B007A8
B007F8
740B40
3E6FAA
0BFBFF
ENDCHAR
STARTCHAR oe
ENCODING 339
SWIDTH 924 0
DWIDTH 10 0
BBX 10 6 0 0
BITMAP
1B9B90
7AFEE0
B0B6C0
A07B40
79FEA0
2F9FD0
ENDCHAR
STARTCHAR Racute
ENCODING 340
SWIDTH 651 0
DWIDTH 7 0
BBX 7 11 0 0
BITMAP
0040
02C0
0100
6A90
7FF4
7438
742C
7478
7FF0
79E0
74B0
ENDCHAR
STARTCHAR racute
ENCODING 341
SWIDTH 414 0
DWIDTH 5 0
BBX 5 9 0 0
BITMAP
0100
0B00
0400
5A40
7E40
7000
7000
7000
7000
ENDCHAR
STARTCHAR Rcommaaccent
ENCODING 342
SWIDTH 651 0
DWIDTH 7 0
BBX 7 11 0 -3
BITMAP
6A90
7FF4
7438
742C
7478
7FF0
79E0
74B0
0100
0340
0100
ENDCHAR
STARTCHAR rcommaaccent
ENCODING 343
SWIDTH 414 0
DWIDTH 5 0
BBX 5 9 0 -3
BITMAP
5A40
7E40
7000
7000
7000
7000
1000
7000
1000
ENDCHAR
STARTCHAR Rcaron
ENCODING 344
SWIDTH 651 0
DWIDTH 7 0
BBX 7 10 0 0
BITMAP
0540
0780
6B90
7FF4
7438
742C
7478
7FF0
79E0
74B0
ENDCHAR
STARTCHAR rcaron
ENCODING 345
SWIDTH 414 0
DWIDTH 5 0
BBX 5 9 0 0
BITMAP
2500
2D00
0000
5A40
7E40
7000
7000
7000
7000
ENDCHAR
STARTCHAR Sacute
ENCODING 346
SWIDTH 610 0
DWIDTH 7 0
BBX 7 11 0 0
BITMAP
0040
02C0
0100
1AA0
7FF0
B000
BA80
2FF0
0074
6AB4
7FD0
ENDCHAR
STARTCHAR sacute
ENCODING 347
SWIDTH 523 0
DWIDTH 6 0
BBX 6 9 0 0
BITMAP
0140
0780
0100
2A80
7A80
BA40
2FD0
55D0
BF80
ENDCHAR
STARTCHAR Scircumflex
ENCODING 348
SWIDTH 610 0
DWIDTH 7 0
BBX 7 11 0 0
BITMAP
0100
0B80
0440
1AA0
7FF0
B000
BA80
2FF0
0074
6AB4
7FD0
ENDCHAR
STARTCHAR scircumflex
ENCODING 349
SWIDTH 523 0
DWIDTH 6 0
BBX 6 9 0 0
BITMAP
0400
1F00
0100
2A80
7A80
BA40
2FD0
55D0
BF80
ENDCHAR
STARTCHAR Scedilla
ENCODING 350
SWIDTH 610 0
DWIDTH 7 0
BBX 7 11 0 -3
BITMAP
1AA0
7FF0
B000
BA80
2FF0
0074
6AB4
7FD0
0300
0640
0500
ENDCHAR
STARTCHAR scedilla
ENCODING 351
SWIDTH 523 0
DWIDTH 6 0
BBX 6 9 0 -3
BITMAP
2A80
7A80
BA40
2FD0
55D0
BF80
0600
0B00
0500
ENDCHAR
STARTCHAR Scaron
ENCODING 352
SWIDTH 610 0
DWIDTH 7 0
BBX 7 11 0 0
BITMAP
0540
0B40
0000
1AA0
7FF0
B000
BA80
2FF0
0074
6AB4
7FD0
ENDCHAR
STARTCHAR scaron
ENCODING 353
SWIDTH 523 0
DWIDTH 6 0
BBX 6 9 0 0
BITMAP
0500
0B00
0000
2A80
7A80
BA40
2FD0
55D0
BF80
ENDCHAR
STARTCHAR Tcommaaccent
ENCODING 354
SWIDTH 578 0
DWIDTH 6 0
BBX 7 11 0 -3
BITMAP
AAA4
BFF4
0B00
0B00
0B00
0B00
0B00
0B00
0100
0700
0100
ENDCHAR
STARTCHAR tcommaaccent
ENCODING 355
SWIDTH 437 0
DWIDTH 5 0
BBX 5 11 0 -3
BITMAP
3400
3400
BA40
BA40
3400
3400
3D40
0B80
0400
1C00
0400
ENDCHAR
STARTCHAR Tcaron
ENCODING 356
SWIDTH 578 0
DWIDTH 6 0
BBX 7 10 0 0
BITMAP
0540
0B40
AAA4
BFF4
0B00
0B00
0B00
0B00
0B00
0B00
ENDCHAR
STARTCHAR tcaron
ENCODING 357
SWIDTH 570 0
DWIDTH 6 0
BBX 7 8 0 0
BITMAP
3420
3434
BA50
BA40
3400
3400
3D40
0B80
ENDCHAR
STARTCHAR Tbar
ENCODING 358
SWIDTH 578 0
DWIDTH 6 0
BBX 7 8 0 0
BITMAP
AAA4
BFF4
0B00
0B00
1F80
1B40
0B00
0B00
ENDCHAR
STARTCHAR tbar
ENCODING 359
SWIDTH 437 0
DWIDTH 5 0
BBX 5 8 0 0
BITMAP
3400
3400
BA40
BA40
B900
B900
3D40
0B80
ENDCHAR
STARTCHAR Utilde
ENCODING 360
SWIDTH 673 0
DWIDTH 7 0
BBX 7 10 0 0
BITMAP
0550
0ED0
6428
7428
7428
7428
7428
7438
3EB4
0BD0
ENDCHAR
STARTCHAR utilde
ENCODING 361
SWIDTH 562 0
DWIDTH 6 0
BBX 6 8 0 0
BITMAP
1940
2B80
7090
B0E0
B0E0
70E0
7AE0
2FA0
ENDCHAR
STARTCHAR Umacron
ENCODING 362
SWIDTH 673 0
DWIDTH 7 0
BBX 7 9 0 0
BITMAP
0BC0
6428
7428
7428
7428
7428
7438
3EB4
0BD0
ENDCHAR
STARTCHAR umacron
ENCODING 363
SWIDTH 562 0
DWIDTH 6 0
BBX 6 7 0 0
BITMAP
1F40
6090
B0E0
B0E0
70E0
7AE0
2FA0
ENDCHAR
STARTCHAR Ubreve
ENCODING 364
SWIDTH 673 0
DWIDTH 7 0
BBX 7 10 0 0
BITMAP
0540
0780
6028
7428
7428
7428
7428
7438
3EB4
0BD0
ENDCHAR
STARTCHAR ubreve
ENCODING 365
SWIDTH 562 0
DWIDTH 6 0
BBX 6 8 0 0
BITMAP
0500
0F00
6090
B0E0
B0E0
70E0
7AE0
2FA0
ENDCHAR
STARTCHAR Uring
ENCODING 366
SWIDTH 673 0
DWIDTH 7 0
BBX 7 10 0 0
BITMAP
0240
0680
6128
7428
7428
7428
7428
7438
3EB4
0BD0
ENDCHAR
STARTCHAR uring
ENCODING 367
SWIDTH 562 0
DWIDTH 6 0
BBX 6 8 0 0
BITMAP
0600
0A00
6190
B0E0
B0E0
70E0
7AE0
2FA0
ENDCHAR
STARTCHAR Uhungarumlaut
ENCODING 368
SWIDTH 673 0
DWIDTH 7 0
BBX 7 10 0 0
BITMAP
0360
0AA0
6068
7428
7428
7428
7428
7438
3EB4
0BD0
ENDCHAR
STARTCHAR uhungarumlaut
ENCODING 369
SWIDTH 562 0
DWIDTH 6 0
BBX 6 8 0 0
BITMAP
0A90
1ED0
6090
B0E0
B0E0
70E0
7AE0
2FA0
ENDCHAR
STARTCHAR Uogonek
ENCODING 370
SWIDTH 673 0
DWIDTH 7 0
BBX 7 10 0 -2
BITMAP
6028
7428
7428
7428
7428
7438
3EB4
0BD0
0600
0740
ENDCHAR
STARTCHAR uogonek
ENCODING 371
SWIDTH 562 0
DWIDTH 6 0
BBX 7 8 0 -2
BITMAP
6090
B0E0
B0E0
70E0
7AE0
2FA0
0090
00B4
ENDCHAR
STARTCHAR Wcircumflex
ENCODING 372
SWIDTH 819 0
DWIDTH 9 0
BBX 9 11 0 0
BITMAP
004000
02E000
011000
619240
75D740
75D740
75D740
75D740
75D740
7AEB40
2FBE00
ENDCHAR
STARTCHAR wcircumflex
ENCODING 373
SWIDTH 756 0
DWIDTH 8 0
BBX 8 9 0 0
BITMAP
0040
03D0
0100
6186
B2CA
B2CA
72CA
77DE
2FBC
ENDCHAR
STARTCHAR Ycircumflex
ENCODING 374
SWIDTH 620 0
DWIDTH 7 0
BBX 7 10 0 0
BITMAP
0100
0B80
6464
B034
B034
7474
3FE0
0B80
0740
0740
ENDCHAR
STARTCHAR ycircumflex
ENCODING 375
SWIDTH 562 0
DWIDTH 6 0
BBX 6 12 0 -3
BITMAP
0500
0F40
0400
6090
B0E0
B0E0
70E0
7AE0
2FE0
06D0
0F40
0400
ENDCHAR
STARTCHAR Ydieresis
ENCODING 376
SWIDTH 620 0
DWIDTH 7 0
BBX 7 9 0 0
BITMAP
1DC0
6024
B034
B034
7474
3FE0
0B80
0740
0740
ENDCHAR
STARTCHAR Zacute
ENCODING 377
SWIDTH 586 0
DWIDTH 6 0
BBX 7 11 0 0
BITMAP
0040
02C0
0100
AAA0
BFE0
02C0
0780
0F00
1D00
3EA0
7FF4
ENDCHAR
STARTCHAR zacute
ENCODING 378
SWIDTH 481 0
DWIDTH 5 0
BBX 5 9 0 0
BITMAP
0100
0740
0500
AA80
AF40
0A00
1D00
3D40
7FC0
ENDCHAR
STARTCHAR Zdotaccent
ENCODING 379
SWIDTH 586 0
DWIDTH 6 0
BBX 7 9 0 0
BITMAP
0700
AAA0
BFE0
02C0
0780
0F00
1D00
3EA0
7FF4
ENDCHAR
STARTCHAR zdotaccent
ENCODING 380
SWIDTH 481 0
DWIDTH 5 0
BBX 5 8 0 0
BITMAP
0400
0D00
AA80
AF40
0A00
1D00
3D40
7FC0
ENDCHAR
STARTCHAR Zcaron
ENCODING 381
SWIDTH 586 0
DWIDTH 6 0
BBX 7 11 0 0
BITMAP
0540
0B40
0000
AAA0
BFE0
02C0
0780
0F00
1D00
3EA0
7FF4
ENDCHAR
STARTCHAR zcaron
ENCODING 382
SWIDTH 481 0
DWIDTH 5 0
BBX 5 9 0 0
BITMAP
1500
1E00
0000
AA80
AF40
0A00
1D00
3D40
7FC0
ENDCHAR
STARTCHAR AEacute
ENCODING 508
SWIDTH 988 0
DWIDTH 11 0
BBX 11 11 0 0
BITMAP
000500
001E00
000400
06AAA4
2FFFF4
782800
742E90
742FD0
7FF800
797EA4
742FF8
ENDCHAR
STARTCHAR aeacute
ENCODING 509
SWIDTH 976 0
DWIDTH 11 0
BBX 11 9 0 0
BITMAP
000400
001D00
001400
1F97E0
7AFEB4
B0BDE0
A07B80
79FFB4
2FABE0
ENDCHAR
STARTCHAR Oslashacute
ENCODING 510
SWIDTH 777 0
DWIDTH 9 0
BBX 9 11 0 0
BITMAP
001000
00E000
004000
06A900
2FBD00
787F00
B0D740
B28740
7B0B00
3E6D00
3FF400
ENDCHAR
STARTCHAR oslashacute
ENCODING 511
SWIDTH 579 0
DWIDTH 6 0
BBX 6 9 0 0
BITMAP
0040
0380
0100
1BA0
7AE0
B3B0
AA70
7DE0
7F80
ENDCHAR
STARTCHAR dotlessj
ENCODING 567
SWIDTH 237 0
DWIDTH 3 0
BBX 4 8 -2 -2
BITMAP
06
07
07
07
07
07
5E
B8
ENDCHAR
STARTCHAR circumflex
ENCODING 710
SWIDTH 267 0
DWIDTH 3 0
BBX 3 3 0 5
BITMAP
10
B8
44
ENDCHAR
STARTCHAR caron
ENCODING 711
SWIDTH 267 0
DWIDTH 3 0
BBX 3 2 0 6
BITMAP
54
74
ENDCHAR
STARTCHAR breve
ENCODING 728
SWIDTH 220 0
DWIDTH 2 0
BBX 3 2 0 6
BITMAP
54
B4
ENDCHAR
STARTCHAR dotaccent
ENCODING 729
SWIDTH 125 0
DWIDTH 1 0
BBX 2 2 0 6
BITMAP
40
D0
ENDCHAR
STARTCHAR ring
ENCODING 730
SWIDTH 192 0
DWIDTH 2 0
BBX 2 3 0 5
BITMAP
A0
A0
10
ENDCHAR
STARTCHAR ogonek
ENCODING 731
SWIDTH 212 0
DWIDTH 2 0
BBX 2 3 0 -2
BITMAP
10
90
B0
ENDCHAR
STARTCHAR tilde
ENCODING 732
SWIDTH 321 0
DWIDTH 4 0
BBX 4 3 0 5
BITMAP
55
ED
40
ENDCHAR
STARTCHAR hungarumlaut
ENCODING 733
SWIDTH 384 0
DWIDTH 4 0
BBX 4 3 0 5
BITMAP
76
AE
04
ENDCHAR
STARTCHAR uni0312
ENCODING 786
SWIDTH 192 0
DWIDTH 2 0
BBX 2 2 0 6
BITMAP
50
A0
ENDCHAR
STARTCHAR uni0315
ENCODING 789
SWIDTH 132 0
DWIDTH 1 0
BBX 2 3 0 5
BITMAP
90
90
40
ENDCHAR
STARTCHAR uni0326
ENCODING 806
SWIDTH 193 0
DWIDTH 2 0
BBX 2 3 0 -3
BITMAP
50
A0
10
ENDCHAR
STARTCHAR pi
ENCODING 960
SWIDTH 555 0
DWIDTH 6 0
BBX 6 6 0 0
BITMAP
AAA0
BFE0
39C0
39C0
39C0
39C0
ENDCHAR
STARTCHAR Wgrave
ENCODING 7808
SWIDTH 819 0
DWIDTH 9 0
BBX 9 11 0 0
BITMAP
010000
078000
004000
619240
75D740
75D740
75D740
75D740
75D740
7AEB40
2FBE00
ENDCHAR
STARTCHAR wgrave
ENCODING 7809
SWIDTH 756 0
DWIDTH 8 0
BBX 8 9 0 0
BITMAP
0500
0B40
0100
6186
B2CA
B2CA
72CA
77DE
2FBC
ENDCHAR
STARTCHAR Wacute
ENCODING 7810
SWIDTH 819 0
DWIDTH 9 0
BBX 9 11 0 0
BITMAP
001000
00B400
004000
619240
75D740
75D740
75D740
75D740
75D740
7AEB40
2FBE00
ENDCHAR
STARTCHAR wacute
ENCODING 7811
SWIDTH 756 0
DWIDTH 8 0
BBX 8 9 0 0
BITMAP
0010
00B0
0040
6186
B2CA
B2CA
72CA
77DE
2FBC
ENDCHAR
STARTCHAR Wdieresis
ENCODING 7812
SWIDTH 819 0
DWIDTH 9 0
BBX 9 9 0 0
BITMAP
037000
619240
75D740
75D740
75D740
75D740
75D740
7AEB40
2FBE00
ENDCHAR
STARTCHAR wdieresis
ENCODING 7813
SWIDTH 756 0
DWIDTH 8 0
BBX 8 7 0 0
BITMAP
0660
6286
B2CA
B2CA
72CA
77DE
2FBC
ENDCHAR
STARTCHAR Ygrave
ENCODING 7922
SWIDTH 620 0
DWIDTH 7 0
BBX 7 11 0 0
BITMAP
1400
2D00
0400
6024
B034
B034
7474
3FE0
0B80
0740
0740
ENDCHAR
STARTCHAR ygrave
ENCODING 7923
SWIDTH 562 0
DWIDTH 6 0
BBX 6 12 0 -3
BITMAP
1000
3800
0400
6090
B0E0
B0E0
70E0
7AE0
2FE0
06D0
0F40
0400
ENDCHAR
STARTCHAR endash
ENCODING 8211
SWIDTH 418 0
DWIDTH 5 0
BBX 4 2 0 3
BITMAP
6A
7E
ENDCHAR
STARTCHAR emdash
ENCODING 8212
SWIDTH 719 0
DWIDTH 8 0
BBX 8 2 0 3
BITMAP
6AA8
7FFD
ENDCHAR
STARTCHAR quoteleft
ENCODING 8216
SWIDTH 246 0
DWIDTH 3 0
BBX 3 3 0 5
BITMAP
10
60
74
ENDCHAR
STARTCHAR quoteright
ENCODING 8217
SWIDTH 245 0
DWIDTH 3 0
BBX 3 3 0 5
BITMAP
60
74
20
ENDCHAR
STARTCHAR quotesinglbase
ENCODING 8218
SWIDTH 264 0
DWIDTH 3 0
BBX 3 4 0 -2
BITMAP
10
74
30
10
ENDCHAR
STARTCHAR quotedblleft
ENCODING 8220
SWIDTH 445 0
DWIDTH 5 0
BBX 5 3 0 5
BITMAP
1100
6700
7740
ENDCHAR
STARTCHAR quotedblright
ENCODING 8221
SWIDTH 444 0
DWIDTH 5 0
BBX 5 3 0 5
BITMAP
6600
7740
2200
ENDCHAR
STARTCHAR quotedblbase
ENCODING 8222
SWIDTH 463 0
DWIDTH 5 0
BBX 5 4 0 -2
BITMAP
1100
7B80
3240
1100
ENDCHAR
STARTCHAR dagger
ENCODING 8224
SWIDTH 434 0
DWIDTH 5 0
BBX 5 10 0 -1
BITMAP
1800
1D00
BF40
6E40
1D00
1D00
1D00
1D00
1D00
1D00
ENDCHAR
STARTCHAR daggerdbl
ENCODING 8225
SWIDTH 452 0
DWIDTH 5 0
BBX 5 10 0 -1
BITMAP
1900
1D00
7F40
6E40
1D00
1D00
6E40
BF80
1D00
1D00
ENDCHAR
STARTCHAR bullet
ENCODING 8226
SWIDTH 354 0
DWIDTH 4 0
BBX 2 2 1 3
BITMAP
F0
F0
ENDCHAR
STARTCHAR ellipsis
ENCODING 8230
SWIDTH 789 0
DWIDTH 9 0
BBX 8 3 0 -1
BITMAP
1041
76DB
1041
ENDCHAR
STARTCHAR perthousand
ENCODING 8240
SWIDTH 998 0
DWIDTH 11 0
BBX 11 8 0 0
BITMAP
282400
697000
A9D000
7E8000
0364A0
0A9DA8
0CDEA8
28B8F4
ENDCHAR
STARTCHAR guilsinglleft
ENCODING 8249
SWIDTH 403 0
DWIDTH 4 0
BBX 4 6 0 0
BITMAP
01
0E
38
74
1E
05
ENDCHAR
STARTCHAR guilsinglright
ENCODING 8250
SWIDTH 402 0
DWIDTH 4 0
BBX 4 6 0 0
BITMAP
10
74
1D
0E
78
20
ENDCHAR
STARTCHAR fraction
ENCODING 8260
SWIDTH 477 0
DWIDTH 5 0
BBX 5 8 0 0
BITMAP
0080
0280
0300
0A00
1C00
2400
7000
9000
ENDCHAR
STARTCHAR Euro
ENCODING 8364
SWIDTH 806 0
DWIDTH 9 0
BBX 8 8 0 0
BITMAP
00A9
03EF
1B91
3FD0
6E80
6F80
079B
01FE
ENDCHAR
STARTCHAR trademark
ENCODING 8482
SWIDTH 606 0
DWIDTH 7 0
BBX 6 3 0 5
BITMAP
65A0
22A0
22A0
ENDCHAR
STARTCHAR partialdiff
ENCODING 8706
SWIDTH 609 0
DWIDTH 7 0
BBX 7 9 0 0
BITMAP
0500
0380
01D0
1BE0
3AF0
B074
B074
79F0
1F80
ENDCHAR
STARTCHAR product
ENCODING 8719
SWIDTH 632 0
DWIDTH 7 0
BBX 7 8 0 0
BITMAP
6AA4
BFF4
2CE0
2CE0
2CE0
2CE0
2CE0
2CE0
ENDCHAR
STARTCHAR minus
ENCODING 8722
SWIDTH 543 0
DWIDTH 6 0
BBX 6 2 0 3
BITMAP
2A80
7FD0
ENDCHAR
STARTCHAR infinity
ENCODING 8734
SWIDTH 771 0
DWIDTH 8 0
BBX 8 5 0 1
BITMAP
2FBD
77EF
71C7
7FFE
1A68
ENDCHAR
STARTCHAR approxequal
ENCODING 8776
SWIDTH 476 0
DWIDTH 5 0
BBX 5 5 0 1
BITMAP
3A80
7740
2540
7B40
1100
ENDCHAR
STARTCHAR notequal
ENCODING 8800
SWIDTH 512 0
DWIDTH 6 0
BBX 5 7 0 0
BITMAP
0380
6B80
6F80
6E80
7FC0
2800
2400
ENDCHAR
STARTCHAR fi
ENCODING 64257
SWIDTH 650 0
DWIDTH 7 0
BBX 7 9 0 0
BITMAP
0650
2FB8
3824
BEA4
BAB8
3438
3438
3438
3438
ENDCHAR
STARTCHAR fl
ENCODING 64258
SWIDTH 631 0
DWIDTH 7 0
BBX 7 9 0 0
BITMAP
06A4
2FF4
3834
BE74
BA74
3434
3434
3434
3434
ENDCHAR
STARTCHAR .notdef
ENCODING -1
SWIDTH 279 0
DWIDTH 3 0
BBX 1 1 0 0
BITMAP
00
ENDCHAR
STARTCHAR .null
ENCODING -1
SWIDTH 0 0
DWIDTH 0 0
BBX 1 1 0 0
BITMAP
00
ENDCHAR
STARTCHAR nonmarkingreturn
ENCODING -1
SWIDTH 279 0
DWIDTH 3 0
BBX 1 1 0 0
BITMAP
00
ENDCHAR
ENDFONT
